# xmcd
#
# Track frame offsets:
#	150
#	16387
#	31672
#	44075
#	60152
#	85370
#	102925
#	117667
#	135325
#	150330
#	170655
#	185130
#
# Disc length: 2656
#
# Revision: 1
# Processed by: cddbd v1.5.1PL0 Copyright (c) Steve Scherf et al.
# Submitted via: CDex 1.51
# Normalized: r0:DSETVAR1
#
DISCID=980a5e0c
DTITLE=Various Artist - #1 HITS OF COUNTRY
DYEAR=2005
DGENRE=Country
TTITLE0=Martina McBride - A Broken Wing
TTITLE1=Kenny Chesney - She's Got It All
TTITLE2=Alan Jackson - Dallas
TTITLE3=Lonestar - Smile
TTITLE4=Sara Evans - Born To Fly
TTITLE5=Brad Paisley - He Didn't Have To Be
TTITLE6=Jo Dee Messina - I'm Alright
TTITLE7=Phil Vassar - Just Another Day In Paradise
TTITLE8=Lorrie Morgan - I Didn't Know My Own Strength
TTITLE9=Clint Black with Lisa Hartman Black - When I Said I Do
TTITLE10=Mindy McCready - Guys Do It All The Time
TTITLE11=Clay Walker - Rumor Has It
EXTD=YEAR: 2005
EXTT0=
EXTT1=
EXTT2=
EXTT3=
EXTT4=
EXTT5=
EXTT6=
EXTT7=
EXTT8=
EXTT9=
EXTT10=
EXTT11=
PLAYORDER=
